<?xml version="1.0" encoding="UTF-8" standalone="no"?>
<!DOCTYPE svg PUBLIC "-//W3C//DTD SVG 1.1//EN"
 "http://www.w3.org/Graphics/SVG/1.1/DTD/svg11.dtd">
<!-- Generated by graphviz version 2.43.0 (0)
 -->
<!-- Title: myFSM Pages: 1 -->
<svg width="557pt" height="211pt"
 viewBox="0.00 0.00 557.30 211.26" xmlns="http://www.w3.org/2000/svg" xmlns:xlink="http://www.w3.org/1999/xlink">
<g id="graph0" class="graph" transform="scale(1 1) rotate(0) translate(4 207.26)">
<title>myFSM</title>
<polygon fill="white" stroke="transparent" points="-4,4 -4,-207.26 553.3,-207.26 553.3,4 -4,4"/>
<!-- start -->
<g id="node1" class="node">
<title>start</title>
<ellipse fill="black" stroke="black" cx="1.8" cy="-30.86" rx="1.8" ry="1.8"/>
</g>
<!-- idle -->
<g id="node2" class="node">
<title>idle</title>
<ellipse fill="lightgreen" stroke="black" cx="164.1" cy="-30.86" rx="24.1" ry="24.1"/>
<text text-anchor="middle" x="164.1" y="-27.16" font-family="Times,serif" font-size="14.00">idle</text>
</g>
<!-- start&#45;&gt;idle -->
<g id="edge1" class="edge">
<title>start&#45;&gt;idle</title>
<path fill="none" stroke="black" d="M3.82,-30.86C13.26,-30.86 85.72,-30.86 129.59,-30.86"/>
<polygon fill="black" stroke="black" points="129.81,-34.36 139.81,-30.86 129.81,-27.36 129.81,-34.36"/>
<text text-anchor="middle" x="34.6" y="-34.66" font-family="Times,serif" font-size="14.00">reset</text>
</g>
<!-- got_aw -->
<g id="node3" class="node">
<title>got_aw</title>
<ellipse fill="lightcyan" stroke="black" cx="380.6" cy="-166.86" rx="36.29" ry="36.29"/>
<text text-anchor="middle" x="380.6" y="-163.16" font-family="Times,serif" font-size="14.00">got_aw</text>
</g>
<!-- idle&#45;&gt;got_aw -->
<g id="edge2" class="edge">
<title>idle&#45;&gt;got_aw</title>
<path fill="none" stroke="black" d="M186.13,-40.75C206.22,-50.46 237.11,-66.06 262.6,-81.86 290.72,-99.3 320.91,-121.32 343.57,-138.57"/>
<polygon fill="black" stroke="black" points="341.49,-141.39 351.56,-144.7 345.75,-135.84 341.49,-141.39"/>
<text text-anchor="middle" x="298.1" y="-120.66" font-family="Times,serif" font-size="14.00">aw_hs</text>
</g>
<!-- got_w -->
<g id="node4" class="node">
<title>got_w</title>
<ellipse fill="lightyellow" stroke="black" cx="380.6" cy="-79.86" rx="32.49" ry="32.49"/>
<text text-anchor="middle" x="380.6" y="-76.16" font-family="Times,serif" font-size="14.00">got_w</text>
</g>
<!-- idle&#45;&gt;got_w -->
<g id="edge3" class="edge">
<title>idle&#45;&gt;got_w</title>
<path fill="none" stroke="black" d="M187.65,-36.01C223.47,-44.2 293.92,-60.29 338.78,-70.54"/>
<polygon fill="black" stroke="black" points="338.24,-74 348.77,-72.82 339.8,-67.18 338.24,-74"/>
<text text-anchor="middle" x="298.1" y="-67.66" font-family="Times,serif" font-size="14.00">w_hs</text>
</g>
<!-- resp -->
<g id="node5" class="node">
<title>resp</title>
<ellipse fill="tan" stroke="black" cx="523.95" cy="-30.86" rx="25.2" ry="25.2"/>
<text text-anchor="middle" x="523.95" y="-27.16" font-family="Times,serif" font-size="14.00">resp</text>
</g>
<!-- idle&#45;&gt;resp -->
<g id="edge4" class="edge">
<title>idle&#45;&gt;resp</title>
<path fill="none" stroke="black" d="M188.28,-29.26C234.04,-26.31 339.22,-20.62 427.6,-23.86 447.84,-24.6 470.46,-26.23 488.58,-27.73"/>
<polygon fill="black" stroke="black" points="488.42,-31.23 498.68,-28.59 489.01,-24.25 488.42,-31.23"/>
<text text-anchor="middle" x="380.6" y="-27.66" font-family="Times,serif" font-size="14.00">aw_hs &amp;&amp; w_hs</text>
</g>
<!-- got_aw&#45;&gt;resp -->
<g id="edge5" class="edge">
<title>got_aw&#45;&gt;resp</title>
<path fill="none" stroke="black" d="M408.45,-142.66C428.58,-124.33 456.67,-98.38 480.6,-74.86 486.56,-69.01 492.85,-62.6 498.72,-56.52"/>
<polygon fill="black" stroke="black" points="501.47,-58.71 505.86,-49.07 496.42,-53.86 501.47,-58.71"/>
<text text-anchor="middle" x="463.1" y="-111.66" font-family="Times,serif" font-size="14.00">w_hs</text>
</g>
<!-- got_w&#45;&gt;resp -->
<g id="edge6" class="edge">
<title>got_w&#45;&gt;resp</title>
<path fill="none" stroke="black" d="M411.58,-69.47C434.55,-61.51 466.23,-50.52 489.93,-42.31"/>
<polygon fill="black" stroke="black" points="491.25,-45.56 499.55,-38.97 488.95,-38.94 491.25,-45.56"/>
<text text-anchor="middle" x="463.1" y="-59.66" font-family="Times,serif" font-size="14.00">aw_hs</text>
</g>
<!-- resp&#45;&gt;idle -->
<g id="edge7" class="edge">
<title>resp&#45;&gt;idle</title>
<path fill="none" stroke="black" d="M499.82,-22.37C480.75,-15.84 452.82,-7.36 427.6,-3.86 344.99,7.61 247.12,-10.89 197.48,-22.53"/>
<polygon fill="black" stroke="black" points="196.54,-19.16 187.64,-24.9 198.18,-25.96 196.54,-19.16"/>
<text text-anchor="middle" x="380.6" y="-7.66" font-family="Times,serif" font-size="14.00">b_hs</text>
</g>
<!-- legend -->
<g id="node6" class="node">
<title>legend</title>
<polygon fill="lightcoral" stroke="black" points="262.6,-149.36 65.6,-149.36 65.6,-90.36 262.6,-90.36 262.6,-149.36"/>
<text text-anchor="middle" x="164.1" y="-131.16" font-family="Times,serif" font-size="14.00">aw_hs = awvalid &amp;&amp; awready</text>
<text text-anchor="middle" x="164.1" y="-116.16" font-family="Times,serif" font-size="14.00">w_hs = wvalid &amp;&amp; wready</text>
<text text-anchor="middle" x="164.1" y="-101.16" font-family="Times,serif" font-size="14.00">b_hs = bvalid &amp;&amp; bready</text>
</g>
<!-- legend&#45;&gt;idle -->
</g>
</svg>
